<svg width="59" height="40" viewBox="0 0 59 40" fill="none" xmlns="http://www.w3.org/2000/svg">
<path fill-rule="evenodd" clip-rule="evenodd" d="M24.066 18.7195C24.9363 12.3243 27.8053 0.789847 33.2769 0.789847C39.6647 0.789847 47.1701 22.113 47.1683 39.7664H41.2776C41.2776 21.2507 36.7139 4.56739 33.4301 4.56667C30.0046 4.56632 27.0026 15.9149 27.0026 37.5363H21.1199C21.1199 15.9149 18.1361 4.56667 14.6924 4.56667C11.4145 4.56667 6.85411 21.2538 6.85411 39.7664H0.963501C0.969032 22.0977 8.45543 0.787677 14.8547 0.789847C20.3187 0.791647 23.1887 12.3228 24.066 18.7195Z" fill="#FDC82F"/>
<path fill-rule="evenodd" clip-rule="evenodd" d="M20.2161 32.6719H47.3498V25.8579H20.2161V32.6719Z" fill="white"/>
<path fill-rule="evenodd" clip-rule="evenodd" d="M44.6127 31.9882H46.32V26.4062H44.6127V31.9882Z" fill="#D52B1E"/>
<path fill-rule="evenodd" clip-rule="evenodd" d="M52.5989 26.4062H53.7617L53.3668 27.9274H52.5214L52.5989 26.4062Z" fill="#D52B1E"/>
<path fill-rule="evenodd" clip-rule="evenodd" d="M55.7651 27.233C56.9009 27.233 57.968 27.5178 57.9731 28.6259H56.3518C56.3518 28.2441 56.1276 28.0706 55.7491 28.0706C55.5245 28.0706 55.221 28.1633 55.221 28.5131C55.2214 29.0936 56.1451 28.9775 56.9293 29.2089C57.6339 29.4166 58.1223 29.8343 58.1223 30.5089C58.1223 31.5423 57.3064 32.114 55.7651 32.1201C54.1489 32.1265 53.5407 31.5475 53.5356 30.5089H55.1784C55.1784 30.9009 55.4237 31.1343 55.7702 31.1343C56.1851 31.1343 56.3732 30.9778 56.3732 30.6863C56.3732 30.0795 55.2407 30.0952 54.5729 29.8781C54.1187 29.7302 53.706 29.3956 53.706 28.6853C53.706 28.0918 54.154 27.233 55.7651 27.233Z" fill="#D52B1E"/>
<path fill-rule="evenodd" clip-rule="evenodd" d="M20.7979 30.2966C20.5145 31.4063 19.5882 32.1256 18.4328 32.1259C17.0379 32.1259 15.9769 31.0769 15.9783 29.559C15.9793 28.043 16.9225 26.9939 18.4328 26.9925C19.6851 26.9914 20.5474 27.7144 20.8062 28.8256L19.2085 28.8257C19.0859 28.4918 18.8505 28.2313 18.4328 28.231C17.7279 28.2309 17.5419 28.9734 17.5422 29.559C17.5424 30.145 17.7279 30.8871 18.4328 30.8871C18.8488 30.8871 19.0838 30.6288 19.2068 30.2967L20.7979 30.2966Z" fill="#D52B1E"/>
<path fill-rule="evenodd" clip-rule="evenodd" d="M9.01877 26.4067H11.0587L11.9466 29.7043L12.8346 26.4067H14.8759L15.7678 32.1259H14.0847L13.6402 28.7835L12.7204 32.1259H11.1728L10.2532 28.7835L9.80836 32.1259H8.12415L9.01877 26.4067Z" fill="#D52B1E"/>
<path fill-rule="evenodd" clip-rule="evenodd" d="M35.1835 29.2537C35.1835 29.4488 35.1835 31.9892 35.1835 31.9892H33.4956V27.1124H35.1835V27.4934C35.6108 27.1626 35.9969 26.9925 36.8729 26.9925C37.8242 26.9925 38.5907 27.6243 38.5911 28.2875V31.9892H36.8911V29.3048C36.8918 28.859 36.4901 28.4955 36.0526 28.4955C35.49 28.4955 35.2101 28.9902 35.1835 29.2537Z" fill="#D52B1E"/>
<path fill-rule="evenodd" clip-rule="evenodd" d="M50.2428 27.5961V26.4062H51.95V31.9882H50.2428V31.7173C50.0186 31.9185 49.7245 32.1241 48.9887 32.1241C48.1607 32.1241 46.8455 31.6669 46.8444 29.7031C46.8433 27.742 48.1593 27.233 49.0953 27.233C49.7751 27.233 50.0961 27.4663 50.2428 27.5961ZM48.4711 29.7031C48.4711 30.4663 48.8285 30.954 49.4156 30.954C49.7675 30.954 50.0619 30.8016 50.2435 30.4836V29.0193C50.1525 28.6961 49.8366 28.4577 49.4156 28.4576C48.8274 28.4573 48.4711 28.9399 48.4711 29.7031Z" fill="#D52B1E"/>
<path fill-rule="evenodd" clip-rule="evenodd" d="M27.8285 29.5597C27.8299 28.0437 28.8192 26.9943 30.4035 26.9929C31.9885 26.9915 32.9777 28.0437 32.9788 29.5597C32.9802 31.0774 31.9881 32.1262 30.4035 32.1262C28.8208 32.1263 27.8272 31.0774 27.8285 29.5597ZM31.3818 29.5597C31.3822 28.9738 31.178 28.2316 30.4035 28.2316C29.6293 28.2312 29.4251 28.9738 29.4253 29.5597C29.4256 30.1454 29.6293 30.8876 30.4035 30.8876C31.178 30.8876 31.3818 30.1454 31.3818 29.5597Z" fill="#D52B1E"/>
<path fill-rule="evenodd" clip-rule="evenodd" d="M21.3927 26.4067H24.3259C26.1611 26.4067 27.4119 27.5395 27.4119 29.2663C27.4119 30.9929 26.1614 32.1259 24.3259 32.1259H21.3927V26.4067ZM23.3331 30.7739H24.2199C24.7945 30.7739 25.494 30.4257 25.494 29.2663C25.494 28.1082 24.7945 27.7587 24.2199 27.7587H23.3331V30.7739Z" fill="#D52B1E"/>
<path fill-rule="evenodd" clip-rule="evenodd" d="M41.6361 26.9931C42.8476 26.9921 43.8462 27.4349 43.9241 28.407V31.9884H42.2154V31.5056C41.8005 31.8589 41.3871 32.1239 40.6403 32.1239C39.7705 32.1239 39.0696 31.4406 39.0696 30.6396C39.0696 29.8384 39.566 28.9484 41.5534 28.9488C42.0659 28.9489 42.2151 28.7486 42.2154 28.51C42.2161 28.217 41.8762 28.0536 41.5917 28.0536C41.3071 28.0536 40.9842 28.1714 40.9842 28.4776H39.3837C39.3837 27.759 39.8699 26.9948 41.6361 26.9931ZM41.5414 29.7412C41.1473 29.7412 40.7826 29.9503 40.7826 30.3508C40.7826 30.6102 40.9369 30.8341 41.3398 30.834C41.7252 30.834 42.1365 30.6068 42.2154 30.1358V29.6896C42.0851 29.7604 41.7904 29.7412 41.5414 29.7412Z" fill="#D52B1E"/>
<path fill-rule="evenodd" clip-rule="evenodd" d="M49.7802 35.9604H50.8291C51.3484 35.9604 51.6942 36.2375 51.6942 36.6037C51.6942 36.9419 51.4321 37.1639 51.1082 37.1916V37.2027C51.605 37.369 51.6774 37.7129 51.6832 38.1788H51.2145C51.1978 37.6186 51.0748 37.3746 50.5783 37.3746H50.1929V38.1788H49.7802V35.9604ZM50.1929 37.0196H50.6842C51.0693 37.0196 51.2254 36.8865 51.2254 36.6369C51.2254 36.4483 51.1082 36.3152 50.7512 36.3152H50.1929V37.0196ZM50.6395 35.1894C51.7 35.1894 52.5592 36.0379 52.5592 37.0973C52.5592 38.1566 51.7 39.0051 50.6395 39.0051C49.579 39.0051 48.7197 38.1566 48.7197 37.0973C48.7197 36.0379 49.579 35.1894 50.6395 35.1894ZM50.6395 38.7999C51.5828 38.7999 52.3529 38.0402 52.3529 37.0973C52.3529 36.1545 51.5828 35.3947 50.6395 35.3947C49.6965 35.3947 48.9261 36.1545 48.9261 37.0973C48.9261 38.0402 49.6965 38.7999 50.6395 38.7999Z" fill="#D52B1E"/>
</svg>
